<svg xmlns="http://www.w3.org/2000/svg" viewBox="0 0 20 20" fill="#55534E"><path d="M18.125 3.75H16.25V1.875H15l-1.494 1.494A7.502 7.502 0 0 0 2.5 10c0 4.14 3.36 7.5 7.5 7.5a7.502 7.502 0 0 0 6.631-11.006L18.125 5zM12.5 10a2.5 2.5 0 1 1-5 0 2.5 2.5 0 0 1 3.769-2.153l-.947.947a1.2 1.2 0 0 0-.319-.047 1.25 1.25 0 1 0 1.25 1.25c0-.113-.019-.216-.047-.319l.947-.947c.219.372.347.803.347 1.269M10 15.625a5.625 5.625 0 0 1 0-11.25c.9 0 1.747.216 2.5.59v1.447a4.36 4.36 0 0 0-2.5-.787A4.376 4.376 0 1 0 14.375 10c0-.931-.294-1.79-.787-2.5h1.446c.375.753.591 1.6.591 2.5A5.626 5.626 0 0 1 10 15.625" fill="#55534E"></path></svg>